REM DIRINDEX 1\6,1\2\7,1\2\8,1\2\9,1\3\10,1\3\11,1\4\12,1\4\13,1\4\14,1\5\15,1\5\16,1\5\17
REM DIRNAME folder01,folder02,folder03,folder04,folder05,folder06,folder07,folder08,folder09,folder10,folder11,folder12,folder13,folder14,folder15,folder16,folder17
TITLE ""
FILE "3Q_k_049-060.mp3" MP3
  TRACK 01 AUDIO
    TITLE "15:cjc041_1396"
    INDEX 01 00:00:00
  TRACK 02 AUDIO
    TITLE "0:"
    INDEX 01 00:01:64
  TRACK 03 AUDIO
    TITLE "16:cjc041_1397"
    INDEX 01 00:02:51
  TRACK 04 AUDIO
    TITLE "0:"
    INDEX 01 00:05:12
  TRACK 05 AUDIO
    TITLE "17:cjc041_1398"
    INDEX 01 00:05:69
  TRACK 06 AUDIO
    TITLE "17:cjc041_1399"
    INDEX 01 00:09:57
  TRACK 07 AUDIO
    TITLE "0:"
    INDEX 01 00:13:04
  TRACK 08 AUDIO
    TITLE "15:cjc041_1400"
    INDEX 01 00:13:53
  TRACK 09 AUDIO
    TITLE "0:"
    INDEX 01 00:15:46
  TRACK 10 AUDIO
    TITLE "16:cjc041_1401"
    INDEX 01 00:16:26
  TRACK 11 AUDIO
    TITLE "0:"
    INDEX 01 00:18:13
  TRACK 12 AUDIO
    TITLE "17:cjc041_1402"
    INDEX 01 00:18:72
  TRACK 13 AUDIO
    TITLE "17:cjc041_1403"
    INDEX 01 00:20:61
  TRACK 14 AUDIO
    TITLE "0:"
    INDEX 01 00:23:53
  TRACK 15 AUDIO
    TITLE "15:cjc041_1404"
    INDEX 01 00:24:35
  TRACK 16 AUDIO
    TITLE "0:"
    INDEX 01 00:26:18
  TRACK 17 AUDIO
    TITLE "16:cjc041_1405"
    INDEX 01 00:27:04
  TRACK 18 AUDIO
    TITLE "0:"
    INDEX 01 00:28:57
  TRACK 19 AUDIO
    TITLE "17:cjc041_1406"
    INDEX 01 00:29:54
  TRACK 20 AUDIO
    TITLE "17:cjc041_1407"
    INDEX 01 00:32:03
  TRACK 21 AUDIO
    TITLE "0:"
    INDEX 01 00:33:64
  TRACK 22 AUDIO
    TITLE "15:cjc041_1408"
    INDEX 01 00:34:43
  TRACK 23 AUDIO
    TITLE "0:"
    INDEX 01 00:36:21
  TRACK 24 AUDIO
    TITLE "16:cjc041_1409"
    INDEX 01 00:37:03
  TRACK 25 AUDIO
    TITLE "0:"
    INDEX 01 00:39:11
  TRACK 26 AUDIO
    TITLE "17:cjc041_1410"
    INDEX 01 00:39:58
  TRACK 27 AUDIO
    TITLE "17:cjc041_1411"
    INDEX 01 00:42:35
  TRACK 28 AUDIO
    TITLE "0:"
    INDEX 01 00:44:01
  TRACK 29 AUDIO
    TITLE "15:cjc041_1412"
    INDEX 01 00:44:54
  TRACK 30 AUDIO
    TITLE "0:"
    INDEX 01 00:46:37
  TRACK 31 AUDIO
    TITLE "16:cjc041_1413"
    INDEX 01 00:47:19
  TRACK 32 AUDIO
    TITLE "0:"
    INDEX 01 00:49:35
  TRACK 33 AUDIO
    TITLE "17:cjc041_1414"
    INDEX 01 00:50:15
  TRACK 34 AUDIO
    TITLE "17:cjc041_1415"
    INDEX 01 00:52:65
  TRACK 35 AUDIO
    TITLE "0:"
    INDEX 01 00:55:16
  TRACK 36 AUDIO
    TITLE "15:cjc041_1416"
    INDEX 01 00:55:69
  TRACK 37 AUDIO
    TITLE "0:"
    INDEX 01 00:57:43
  TRACK 38 AUDIO
    TITLE "16:cjc041_1417"
    INDEX 01 00:58:20
  TRACK 39 AUDIO
    TITLE "0:"
    INDEX 01 01:00:19
  TRACK 40 AUDIO
    TITLE "17:cjc041_1418"
    INDEX 01 01:00:72
  TRACK 41 AUDIO
    TITLE "17:cjc041_1419"
    INDEX 01 01:05:13
  TRACK 42 AUDIO
    TITLE "0:"
    INDEX 01 01:07:06
  TRACK 43 AUDIO
    TITLE "15:cjc041_1420"
    INDEX 01 01:07:63
  TRACK 44 AUDIO
    TITLE "0:"
    INDEX 01 01:09:28
  TRACK 45 AUDIO
    TITLE "16:cjc041_1421"
    INDEX 01 01:10:12
  TRACK 46 AUDIO
    TITLE "0:"
    INDEX 01 01:11:31
  TRACK 47 AUDIO
    TITLE "17:cjc041_1422"
    INDEX 01 01:12:19
  TRACK 48 AUDIO
    TITLE "17:cjc041_1423"
    INDEX 01 01:15:03
  TRACK 49 AUDIO
    TITLE "0:"
    INDEX 01 01:19:74
  TRACK 50 AUDIO
    TITLE "15:cjc041_1424"
    INDEX 01 01:20:55
  TRACK 51 AUDIO
    TITLE "0:"
    INDEX 01 01:22:19
  TRACK 52 AUDIO
    TITLE "16:cjc041_1425"
    INDEX 01 01:22:72
  TRACK 53 AUDIO
    TITLE "0:"
    INDEX 01 01:26:32
  TRACK 54 AUDIO
    TITLE "17:cjc041_1426"
    INDEX 01 01:27:04
  TRACK 55 AUDIO
    TITLE "17:cjc041_1427"
    INDEX 01 01:29:58
  TRACK 56 AUDIO
    TITLE "0:"
    INDEX 01 01:33:66
  TRACK 57 AUDIO
    TITLE "15:cjc041_1428"
    INDEX 01 01:34:46
  TRACK 58 AUDIO
    TITLE "0:"
    INDEX 01 01:36:03
  TRACK 59 AUDIO
    TITLE "16:cjc041_1429"
    INDEX 01 01:36:54
  TRACK 60 AUDIO
    TITLE "0:"
    INDEX 01 01:37:64
  TRACK 61 AUDIO
    TITLE "17:cjc041_1430"
    INDEX 01 01:38:57
  TRACK 62 AUDIO
    TITLE "17:cjc041_1431"
    INDEX 01 01:41:22
  TRACK 63 AUDIO
    TITLE "0:"
    INDEX 01 01:42:57
  TRACK 64 AUDIO
    TITLE "15:cjc041_1432"
    INDEX 01 01:43:41
  TRACK 65 AUDIO
    TITLE "0:"
    INDEX 01 01:45:40
  TRACK 66 AUDIO
    TITLE "16:cjc041_1433"
    INDEX 01 01:46:21
  TRACK 67 AUDIO
    TITLE "0:"
    INDEX 01 01:48:71
  TRACK 68 AUDIO
    TITLE "17:cjc041_1434"
    INDEX 01 01:49:55
  TRACK 69 AUDIO
    TITLE "17:cjc041_1435"
    INDEX 01 01:53:37
  TRACK 70 AUDIO
    TITLE "0:"
    INDEX 01 01:55:36
  TRACK 71 AUDIO
    TITLE "15:cjc041_1436"
    INDEX 01 01:56:18
  TRACK 72 AUDIO
    TITLE "0:"
    INDEX 01 01:58:29
  TRACK 73 AUDIO
    TITLE "16:cjc041_1437"
    INDEX 01 01:59:18
  TRACK 74 AUDIO
    TITLE "0:"
    INDEX 01 02:01:31
  TRACK 75 AUDIO
    TITLE "17:cjc041_1438"
    INDEX 01 02:02:17
  TRACK 76 AUDIO
    TITLE "17:cjc041_1439"
    INDEX 01 02:04:25
  TRACK 77 AUDIO
    TITLE "0:"
    INDEX 01 02:07:04
  TRACK 78 AUDIO
    TITLE "15:cjc041_1440"
    INDEX 01 02:07:61
  TRACK 79 AUDIO
    TITLE "0:"
    INDEX 01 02:09:54
  TRACK 80 AUDIO
    TITLE "16:cjc041_1441"
    INDEX 01 02:10:30
  TRACK 81 AUDIO
    TITLE "0:"
    INDEX 01 02:13:10
  TRACK 82 AUDIO
    TITLE "17:cjc041_1442"
    INDEX 01 02:13:56
  TRACK 83 AUDIO
    TITLE "17:cjc041_1443"
    INDEX 01 02:16:70
  TRACK 84 AUDIO
    TITLE "0:"
    INDEX 01 02:18:55
